<?xml version="1.0" standalone="no"?>
<!DOCTYPE svg PUBLIC "-//W3C//DTD SVG 20010904//EN"
 "http://www.w3.org/TR/2001/REC-SVG-20010904/DTD/svg10.dtd">
<svg version="1.0" xmlns="http://www.w3.org/2000/svg"
 width="1029.000000pt" height="1280.000000pt" viewBox="0 0 1029.000000 1280.000000"
 preserveAspectRatio="xMidYMid meet">

<g transform="translate(0.000000,1280.000000) scale(0.100000,-0.100000)"
fill="#000000" stroke="none">
<path d="M30 9776 l0 -3016 2553 0 c1403 0 3323 0 4265 0 1563 0 1713 -1 1719
-16 3 -9 1 -109 -6 -222 -37 -655 -186 -1185 -466 -1657 -200 -339 -503 -661
-811 -861 -417 -273 -1004 -448 -1749 -524 -412 -41 -474 -43 -2192 -47
l-1673 -4 0 1185 0 1186 -830 0 -830 0 0 -1705 0 -1705 2453 0 c1462 0 2549 4
2692 10 850 35 1599 152 2220 345 714 222 1326 598 1819 1117 263 278 465 573
656 963 208 425 319 790 384 1268 42 302 46 429 46 1391 l0 916 -2552 0
c-1404 0 -3337 0 -4295 0 l-1743 0 0 1675 0 1675 1493 0 c1701 0 2032 -8 2529
-60 363 -38 596 -84 845 -165 475 -156 872 -402 1234 -767 364 -366 572 -750
695 -1280 l28 -118 854 0 855 0 -7 43 c-25 159 -132 526 -218 744 -55 140
-198 428 -283 568 -372 615 -966 1141 -1680 1490 -611 298 -1290 467 -2149
535 -533 42 -563 43 -3248 47 l-2608 4 0 -3015z m4795 2994 c1027 -20 1581
-75 2170 -215 791 -187 1480 -540 2035 -1042 85 -77 166 -153 180 -169 14 -16
54 -60 89 -99 327 -359 592 -817 760 -1315 56 -165 120 -408 136 -514 l7 -46
-838 2 -838 3 -9 45 c-63 320 -217 701 -387 957 -245 369 -664 739 -1081 957
-518 270 -938 361 -1939 418 -166 10 -647 13 -1830 13 l-1605 0 -3 -1687 -2
-1688 1742 -2 1743 -3 3 -808 2 -807 -2557 2 -2558 3 -2 2994 c-2 1646 0 2997
3 3002 7 12 4173 11 4779 -1z"/>
<path d="M3955 1071 c-91 -24 -158 -74 -202 -148 -20 -34 -27 -63 -31 -118 -4
-63 -1 -80 23 -134 45 -99 115 -150 293 -213 181 -63 242 -117 242 -213 0
-106 -85 -185 -201 -185 -112 0 -214 82 -287 230 -68 138 -79 120 -63 -97 7
-92 15 -171 17 -175 11 -18 34 -6 50 25 9 17 17 33 18 34 1 1 38 -12 82 -29
73 -30 88 -32 199 -33 106 0 126 3 168 23 61 31 130 100 165 166 23 44 27 63
27 141 0 78 -4 97 -27 141 -51 97 -124 145 -316 209 -162 53 -222 103 -222
186 0 75 87 149 175 149 89 0 217 -93 263 -192 15 -34 28 -48 42 -48 11 0 20
5 20 11 0 27 -32 263 -36 271 -10 16 -35 7 -46 -17 -14 -30 -10 -30 -83 -4
-65 23 -217 34 -270 20z"/>
<path d="M7615 1070 c-99 -4 -197 -8 -218 -9 -31 -1 -38 -5 -35 -18 2 -12 17
-20 48 -25 67 -12 81 -32 91 -130 10 -105 10 -655 0 -726 -9 -65 -34 -92 -90
-99 -31 -4 -41 -10 -41 -24 0 -16 16 -18 242 -18 133 0 245 2 249 5 15 9 -3
34 -26 34 -42 0 -86 22 -100 51 -12 22 -15 71 -15 224 l0 195 48 0 c56 0 123
-28 146 -61 24 -35 54 -140 70 -251 8 -53 23 -116 34 -141 19 -42 24 -46 64
-52 23 -3 104 -5 178 -3 107 2 135 6 135 17 0 8 -19 19 -48 26 -82 21 -110 64
-157 238 -11 43 -29 96 -40 118 -24 46 -87 94 -144 111 -49 14 -69 28 -38 28
44 0 153 44 191 77 22 18 52 58 67 89 48 98 20 210 -70 279 -88 67 -193 80
-541 65z m283 -69 c75 -39 102 -88 103 -186 1 -63 -18 -124 -49 -159 -31 -35
-113 -66 -174 -66 l-58 0 0 209 c0 158 3 211 13 214 32 13 130 6 165 -12z"/>
<path d="M8862 1069 c-195 -33 -368 -202 -417 -410 -115 -489 384 -815 880
-574 49 24 96 48 104 53 9 7 15 51 21 148 5 77 11 147 15 156 7 18 10 19 83
38 25 6 42 17 42 25 0 17 -119 20 -368 8 -122 -5 -142 -8 -140 -22 2 -10 23
-19 62 -27 89 -18 100 -43 94 -212 -4 -115 -12 -130 -93 -168 -64 -30 -161
-32 -221 -5 -146 66 -234 242 -234 466 0 338 194 535 450 459 100 -29 181
-103 256 -231 33 -58 55 -75 68 -55 2 4 -3 75 -12 157 -14 127 -20 150 -34
153 -12 2 -21 -6 -28 -22 -5 -14 -14 -26 -19 -26 -6 0 -50 16 -98 36 -154 62
-268 77 -411 53z"/>
<path d="M4572 1051 c-6 -16 15 -31 44 -31 36 0 65 -32 75 -80 11 -58 11 -741
0 -799 -10 -50 -27 -66 -83 -81 -35 -10 -56 -26 -45 -36 5 -5 481 -11 497 -6
5 2 10 10 10 18 0 13 -19 20 -69 26 -69 8 -83 106 -79 554 4 385 3 384 88 404
54 13 68 24 48 36 -7 5 -118 8 -247 9 -187 0 -235 -3 -239 -14z"/>
<path d="M5133 1055 c-7 -19 -10 -17 58 -47 42 -19 63 -37 88 -74 59 -89 62
-118 59 -466 -3 -294 -4 -315 -23 -348 -21 -34 -51 -50 -128 -65 -16 -3 -27
-11 -24 -18 3 -9 58 -12 213 -12 178 0 209 2 209 15 0 9 -13 17 -35 21 -48 8
-97 35 -115 63 -9 13 -20 61 -25 107 -12 105 -13 519 -1 519 5 0 26 -21 47
-47 224 -274 599 -693 619 -693 8 0 17 5 21 11 4 7 7 210 8 453 1 403 3 444
19 474 21 38 64 67 114 77 25 4 33 11 31 23 -3 15 -24 17 -206 17 -182 0 -202
-1 -202 -16 0 -12 15 -21 50 -29 62 -15 105 -54 119 -107 7 -27 10 -131 9
-289 l-3 -248 -161 180 c-89 98 -221 249 -294 334 -73 85 -140 161 -148 168
-11 8 -59 12 -154 12 -116 0 -140 -3 -145 -15z"/>
<path d="M9692 1051 c-6 -16 15 -31 43 -31 38 0 63 -28 74 -82 15 -67 15 -745
1 -798 -13 -49 -31 -67 -80 -80 -41 -11 -57 -25 -40 -35 11 -7 468 -13 488 -7
6 2 12 10 12 18 0 13 -19 20 -69 26 -71 8 -83 95 -79 541 4 412 1 401 106 422
23 5 32 12 30 23 -3 14 -30 16 -242 17 -191 0 -240 -3 -244 -14z"/>
<path d="M6362 1044 c2 -10 22 -23 51 -31 80 -23 79 -21 75 -472 -3 -348 -5
-390 -21 -423 -19 -37 -49 -55 -102 -60 -19 -2 -30 -9 -30 -18 0 -13 48 -16
340 -22 187 -5 389 -7 449 -5 l109 2 22 95 c38 167 39 170 17 170 -12 0 -30
-18 -50 -50 -61 -98 -167 -149 -328 -157 -114 -6 -168 10 -185 54 -5 13 -9
110 -9 214 l0 189 41 0 c101 0 173 -48 200 -135 8 -29 21 -50 29 -50 11 0 14
36 17 185 2 102 4 194 6 205 1 11 -5 21 -14 22 -10 3 -23 -13 -39 -46 -41 -89
-90 -121 -187 -121 l-56 0 5 196 c4 150 9 198 19 205 18 11 203 11 253 -1 58
-13 114 -57 171 -132 48 -64 67 -78 79 -59 3 5 -5 64 -19 131 -14 68 -25 124
-25 126 0 2 -185 4 -411 4 -376 0 -410 -1 -407 -16z"/>
</g>
</svg>
